<svg width="634" height="324" xmlns="http://www.w3.org/2000/svg" xmlns:xlink="http://www.w3.org/1999/xlink" xml:space="preserve" overflow="hidden"><g transform="translate(-429 -399)"><rect x="442" y="412" width="238" height="238" stroke="#042433" stroke-width="6" stroke-miterlimit="8" fill="none"/><path d="M429 411.5C429 404.596 434.596 399 441.5 399 448.404 399 454 404.596 454 411.5 454 418.404 448.404 424 441.5 424 434.596 424 429 418.404 429 411.5Z" fill-rule="evenodd"/><path d="M668 411.5C668 404.596 673.596 399 680.5 399 687.404 399 693 404.596 693 411.5 693 418.404 687.404 424 680.5 424 673.596 424 668 418.404 668 411.5Z" fill-rule="evenodd"/><path d="M668 650.5C668 643.596 673.596 638 680.5 638 687.404 638 693 643.596 693 650.5 693 657.404 687.404 663 680.5 663 673.596 663 668 657.404 668 650.5Z" fill-rule="evenodd"/><path d="M429 650C429 643.373 434.596 638 441.5 638 448.404 638 454 643.373 454 650 454 656.627 448.404 662 441.5 662 434.596 662 429 656.627 429 650Z" fill-rule="evenodd"/><path d="M548.496 524.317 554.317 518.496 560.5 524.679 566.683 518.496 572.504 524.317 566.321 530.5 572.504 536.683 566.683 542.504 560.5 536.321 554.317 542.504 548.496 536.683 554.679 530.5Z" stroke="#000000" stroke-width="2" stroke-miterlimit="8" fill-rule="evenodd"/><rect x="812" y="412" width="239" height="239" stroke="#042433" stroke-width="6" stroke-miterlimit="8" fill="none"/><path d="M800 412C800 405.373 805.373 400 812 400 818.627 400 824 405.373 824 412 824 418.627 818.627 424 812 424 805.373 424 800 418.627 800 412Z" fill-rule="evenodd"/><path d="M1038 412C1038 405.373 1043.6 400 1050.5 400 1057.4 400 1063 405.373 1063 412 1063 418.627 1057.4 424 1050.5 424 1043.6 424 1038 418.627 1038 412Z" fill-rule="evenodd"/><path d="M1038 650.5C1038 643.596 1043.6 638 1050.5 638 1057.4 638 1063 643.596 1063 650.5 1063 657.404 1057.4 663 1050.5 663 1043.6 663 1038 657.404 1038 650.5Z" fill-rule="evenodd"/><path d="M800 650.5C800 643.596 805.373 638 812 638 818.627 638 824 643.596 824 650.5 824 657.404 818.627 663 812 663 805.373 663 800 657.404 800 650.5Z" fill-rule="evenodd"/><path d="M986.496 458.317 992.317 452.496 998.5 458.679 1004.68 452.496 1010.5 458.317 1004.32 464.5 1010.5 470.683 1004.68 476.504 998.5 470.321 992.317 476.504 986.496 470.683 992.679 464.5Z" stroke="#000000" stroke-width="2" stroke-miterlimit="8" fill-rule="evenodd"/><path d="M851.496 458.317 857.317 452.496 863.5 458.679 869.683 452.496 875.504 458.317 869.321 464.5 875.504 470.683 869.683 476.504 863.5 470.321 857.317 476.504 851.496 470.683 857.679 464.5Z" stroke="#000000" stroke-width="2" stroke-miterlimit="8" fill-rule="evenodd"/><path d="M851.496 589.317 857.317 583.496 863.5 589.679 869.683 583.496 875.504 589.317 869.321 595.5 875.504 601.683 869.683 607.504 863.5 601.321 857.317 607.504 851.496 601.683 857.679 595.5Z" stroke="#000000" stroke-width="2" stroke-miterlimit="8" fill-rule="evenodd"/><path d="M986.496 589.317 992.317 583.496 998.5 589.679 1004.68 583.496 1010.5 589.317 1004.32 595.5 1010.5 601.683 1004.68 607.504 998.5 601.321 992.317 607.504 986.496 601.683 992.679 595.5Z" stroke="#000000" stroke-width="2" stroke-miterlimit="8" fill-rule="evenodd"/><text font-family="Aptos,Aptos_MSFontService,Arial" font-weight="400" font-size="24" transform="translate(480.509 701)">Reduced Order</text><text font-family="Aptos,Aptos_MSFontService,Arial" font-weight="400" font-size="24" transform="translate(877.045 701)">Full Order</text></g></svg>